<svg width="28" height="28" viewBox="0 0 28 28" fill="none" xmlns="http://www.w3.org/2000/svg">
<g clip-path="url(#clip0_1_7200)">
<path d="M19.3328 8.17776C19.3328 9.68655 18.7709 11.1335 17.7707 12.2004C16.7705 13.2673 15.4139 13.8666 13.9995 13.8666C12.585 13.8666 11.2284 13.2673 10.2282 12.2004C9.22803 11.1335 8.66613 9.68655 8.66613 8.17776M2.84375 7.3264L1.91042 19.2731C1.70992 21.8395 1.60967 23.1227 2.01637 24.1126C2.37371 24.9823 2.99283 25.7 3.77571 26.1521C4.66676 26.6666 5.87394 26.6666 8.28831 26.6666H19.7106C22.125 26.6666 23.3322 26.6666 24.2232 26.1521C25.0061 25.7 25.6252 24.9823 25.9825 24.1126C26.3893 23.1227 26.289 21.8395 26.0885 19.2731L25.1552 7.3264C24.9827 5.11821 24.8964 4.01411 24.438 3.17845C24.0343 2.44257 23.4331 1.85257 22.7121 1.48456C21.8933 1.06665 20.8546 1.06665 18.7773 1.06665L9.22165 1.06665C7.14429 1.06665 6.10562 1.06665 5.28682 1.48456C4.56579 1.85257 3.96466 2.44256 3.56096 3.17844C3.10252 4.01411 3.01627 5.11821 2.84375 7.3264Z" stroke="#A05175" stroke-width="2" stroke-linecap="round" stroke-linejoin="round"/>
</g>
<defs>
<clipPath id="clip0_1_7200">
<rect width="28" height="27.7333" fill="white"/>
</clipPath>
</defs>
</svg>
