<svg width="32" height="33" viewBox="0 0 32 33" fill="none" xmlns="http://www.w3.org/2000/svg">
<mask id="path-1-inside-1_1_6973" fill="white">
<path fill-rule="evenodd" clip-rule="evenodd" d="M5.00003 13.3711C5.00003 9.59986 5.00003 7.71424 6.1716 6.54267C7.34318 5.37109 9.22879 5.37109 13 5.37109H18.3334C22.1046 5.37109 23.9902 5.37109 25.1618 6.54267C26.3334 7.71424 26.3334 9.59986 26.3334 13.3711V18.7044C26.3334 22.4757 26.3334 24.3613 25.1618 25.5329C23.9902 26.7044 22.1046 26.7044 18.3334 26.7044H13C9.2288 26.7044 7.34318 26.7044 6.1716 25.5329C5.00003 24.3613 5.00003 22.4757 5.00003 18.7044V13.3711ZM22 16.8711C22 20.4609 19.0899 23.3711 15.5 23.3711C11.9102 23.3711 9.00003 20.4609 9.00003 16.8711C9.00003 13.2812 11.9102 10.3711 15.5 10.3711C19.0899 10.3711 22 13.2812 22 16.8711ZM15.5 20.1211C17.295 20.1211 18.75 18.666 18.75 16.8711C18.75 15.0762 17.295 13.6211 15.5 13.6211C13.7051 13.6211 12.25 15.0762 12.25 16.8711C12.25 18.666 13.7051 20.1211 15.5 20.1211ZM21.5 11.7044C22.3285 11.7044 23 11.0329 23 10.2044C23 9.37601 22.3285 8.70444 21.5 8.70444C20.6716 8.70444 20 9.37601 20 10.2044C20 11.0329 20.6716 11.7044 21.5 11.7044Z"/>
</mask>
<path fill-rule="evenodd" clip-rule="evenodd" d="M5.00003 13.3711C5.00003 9.59986 5.00003 7.71424 6.1716 6.54267C7.34318 5.37109 9.22879 5.37109 13 5.37109H18.3334C22.1046 5.37109 23.9902 5.37109 25.1618 6.54267C26.3334 7.71424 26.3334 9.59986 26.3334 13.3711V18.7044C26.3334 22.4757 26.3334 24.3613 25.1618 25.5329C23.9902 26.7044 22.1046 26.7044 18.3334 26.7044H13C9.2288 26.7044 7.34318 26.7044 6.1716 25.5329C5.00003 24.3613 5.00003 22.4757 5.00003 18.7044V13.3711ZM22 16.8711C22 20.4609 19.0899 23.3711 15.5 23.3711C11.9102 23.3711 9.00003 20.4609 9.00003 16.8711C9.00003 13.2812 11.9102 10.3711 15.5 10.3711C19.0899 10.3711 22 13.2812 22 16.8711ZM15.5 20.1211C17.295 20.1211 18.75 18.666 18.75 16.8711C18.75 15.0762 17.295 13.6211 15.5 13.6211C13.7051 13.6211 12.25 15.0762 12.25 16.8711C12.25 18.666 13.7051 20.1211 15.5 20.1211ZM21.5 11.7044C22.3285 11.7044 23 11.0329 23 10.2044C23 9.37601 22.3285 8.70444 21.5 8.70444C20.6716 8.70444 20 9.37601 20 10.2044C20 11.0329 20.6716 11.7044 21.5 11.7044Z" fill="white"/>
<path d="M25.1618 6.54267L23.7476 7.95688L23.7476 7.95688L25.1618 6.54267ZM25.1618 25.5329L23.7476 24.1186L23.7476 24.1186L25.1618 25.5329ZM6.1716 25.5329L7.58582 24.1186L7.58582 24.1186L6.1716 25.5329ZM4.75739 5.12845C3.73807 6.14778 3.34058 7.40448 3.16431 8.71551C2.99578 9.96901 3.00003 11.542 3.00003 13.3711H7.00003C7.00003 11.4289 7.00428 10.1735 7.12864 9.2485C7.24527 8.38102 7.43357 8.10913 7.58582 7.95688L4.75739 5.12845ZM13 3.37109C11.171 3.37109 9.59795 3.36685 8.34445 3.53537C7.03342 3.71164 5.77671 4.10913 4.75739 5.12845L7.58582 7.95688C7.73807 7.80463 8.00996 7.61634 8.87744 7.49971C9.80245 7.37534 11.0579 7.37109 13 7.37109V3.37109ZM18.3334 3.37109H13V7.37109H18.3334V3.37109ZM26.576 5.12845C25.5567 4.10913 24.3 3.71164 22.9889 3.53537C21.7354 3.36685 20.1624 3.37109 18.3334 3.37109V7.37109C20.2755 7.37109 21.5309 7.37534 22.456 7.49971C23.3234 7.61634 23.5953 7.80463 23.7476 7.95688L26.576 5.12845ZM28.3334 13.3711C28.3334 11.542 28.3376 9.96901 28.1691 8.71551C27.9928 7.40448 27.5953 6.14778 26.576 5.12845L23.7476 7.95688C23.8998 8.10913 24.0881 8.38102 24.2048 9.2485C24.3291 10.1735 24.3334 11.4289 24.3334 13.3711H28.3334ZM28.3334 18.7044V13.3711H24.3334V18.7044H28.3334ZM26.576 26.9471C27.5953 25.9277 27.9928 24.671 28.1691 23.36C28.3376 22.1065 28.3334 20.5335 28.3334 18.7044H24.3334C24.3334 20.6466 24.3291 21.902 24.2048 22.827C24.0881 23.6945 23.8998 23.9664 23.7476 24.1186L26.576 26.9471ZM18.3334 28.7044C20.1624 28.7044 21.7354 28.7087 22.9889 28.5401C24.3 28.3639 25.5567 27.9664 26.576 26.9471L23.7476 24.1186C23.5953 24.2709 23.3234 24.4592 22.456 24.5758C21.5309 24.7002 20.2755 24.7044 18.3334 24.7044V28.7044ZM13 28.7044H18.3334V24.7044H13V28.7044ZM4.75739 26.9471C5.77671 27.9664 7.03342 28.3639 8.34445 28.5401C9.59795 28.7087 11.171 28.7044 13 28.7044V24.7044C11.0579 24.7044 9.80245 24.7002 8.87744 24.5758C8.00996 24.4592 7.73807 24.2709 7.58582 24.1186L4.75739 26.9471ZM3.00003 18.7044C3.00003 20.5335 2.99578 22.1065 3.16431 23.36C3.34058 24.671 3.73807 25.9277 4.75739 26.9471L7.58582 24.1186C7.43357 23.9664 7.24527 23.6945 7.12864 22.827C7.00428 21.902 7.00003 20.6466 7.00003 18.7044H3.00003ZM3.00003 13.3711V18.7044H7.00003V13.3711H3.00003ZM15.5 25.3711C20.1945 25.3711 24 21.5655 24 16.8711H20C20 19.3564 17.9853 21.3711 15.5 21.3711V25.3711ZM7.00003 16.8711C7.00003 21.5655 10.8056 25.3711 15.5 25.3711V21.3711C13.0147 21.3711 11 19.3564 11 16.8711H7.00003ZM15.5 8.37109C10.8056 8.37109 7.00003 12.1767 7.00003 16.8711H11C11 14.3858 13.0147 12.3711 15.5 12.3711V8.37109ZM24 16.8711C24 12.1767 20.1945 8.37109 15.5 8.37109V12.3711C17.9853 12.3711 20 14.3858 20 16.8711H24ZM16.75 16.8711C16.75 17.5615 16.1904 18.1211 15.5 18.1211V22.1211C18.3995 22.1211 20.75 19.7706 20.75 16.8711H16.75ZM15.5 15.6211C16.1904 15.6211 16.75 16.1807 16.75 16.8711H20.75C20.75 13.9716 18.3995 11.6211 15.5 11.6211V15.6211ZM14.25 16.8711C14.25 16.1807 14.8097 15.6211 15.5 15.6211V11.6211C12.6005 11.6211 10.25 13.9716 10.25 16.8711H14.25ZM15.5 18.1211C14.8097 18.1211 14.25 17.5615 14.25 16.8711H10.25C10.25 19.7706 12.6005 22.1211 15.5 22.1211V18.1211ZM21 10.2044C21 9.92829 21.2239 9.70444 21.5 9.70444V13.7044C23.433 13.7044 25 12.1374 25 10.2044H21ZM21.5 10.7044C21.2239 10.7044 21 10.4806 21 10.2044H25C25 8.27144 23.433 6.70444 21.5 6.70444V10.7044ZM22 10.2044C22 10.4806 21.7762 10.7044 21.5 10.7044V6.70444C19.567 6.70444 18 8.27144 18 10.2044H22ZM21.5 9.70444C21.7762 9.70444 22 9.9283 22 10.2044H18C18 12.1374 19.567 13.7044 21.5 13.7044V9.70444Z" fill="white" mask="url(#path-1-inside-1_1_6973)"/>
</svg>
