<svg width="33" height="33" viewBox="0 0 33 33" fill="none" xmlns="http://www.w3.org/2000/svg">
<path d="M16.3986 2.9751C9.03458 2.9751 3.06525 8.9447 3.06525 16.3084C3.06525 18.2204 3.4919 20.1247 4.3159 21.8918C3.22256 27.5384 3.10659 28.0584 3.10659 28.0584C2.92792 28.9832 3.72256 29.7752 4.64923 29.6002C4.64923 29.6002 5.15457 29.5127 10.8572 28.4335C12.5786 29.2516 14.4866 29.6418 16.3986 29.6418C23.7626 29.6418 29.7319 23.6722 29.7319 16.3084C29.7319 8.9447 23.7626 2.9751 16.3986 2.9751ZM16.3986 5.64177C22.2892 5.64177 27.0652 10.4174 27.0652 16.3084C27.0652 22.1995 22.2892 26.9751 16.3986 26.9751C14.7226 26.9751 13.1132 26.5815 11.6492 25.85C11.3879 25.7199 11.1013 25.6708 10.8146 25.7251C6.08126 26.6211 6.45725 26.5676 6.06525 26.6418C6.14258 26.245 6.0759 26.6568 6.98256 21.9751C7.03856 21.6852 6.98924 21.3638 6.85724 21.1002C6.11324 19.6259 5.73191 17.9986 5.73191 16.3084C5.73191 10.4174 10.5079 5.64177 16.3986 5.64177ZM12.6492 9.64177C11.3986 9.64177 9.73191 11.3084 9.73191 12.5584C9.73191 14.1694 11.3986 17.1418 13.0652 18.8084C13.2452 18.9878 13.7186 19.4624 13.8986 19.6418C15.5652 21.3084 18.5373 22.9751 20.1479 22.9751C21.3986 22.9751 23.0652 21.3084 23.0652 20.0584C23.0652 18.8084 21.3986 17.1418 20.1479 17.1418C19.7319 17.1418 18.2239 18.0038 18.0652 17.9751C16.7372 17.7354 15.0092 15.9655 14.7319 14.6418C14.6932 14.457 15.5652 12.9751 15.5652 12.5584C15.5652 11.3084 13.8986 9.64177 12.6492 9.64177Z" fill="white"/>
</svg>
