<svg width="33" height="33" viewBox="0 0 33 33" fill="none" xmlns="http://www.w3.org/2000/svg">
<path d="M8.53624 5.70166C5.82424 5.70166 3.70159 6.38698 3.32692 8.99365C3.20692 9.82832 3.47091 10.6497 4.07758 11.243C4.37891 11.5377 4.69759 11.8883 5.11892 12.243C6.17625 13.135 7.52426 14.1377 8.78559 15.035C12.2563 17.5016 14.9963 19.035 16.6189 19.035C18.2416 19.035 20.9816 17.5016 24.4523 15.035C25.715 14.1377 27.063 13.1337 28.119 12.243C28.5403 11.8883 28.859 11.539 29.1603 11.243C29.767 10.6497 30.031 9.82832 29.9109 8.99365C29.5363 6.38698 27.4136 5.70166 24.7016 5.70166H8.53624ZM3.28558 13.9097V21.7016C3.28558 24.647 5.67359 27.035 8.61893 27.035H24.6189C27.5643 27.035 29.9523 24.647 29.9523 21.7016V13.9097C28.859 14.9483 27.6376 16.0203 25.9109 17.243C22.1296 19.9203 18.7336 21.7016 16.6189 21.7016C14.5043 21.7016 11.1083 19.9203 7.32693 17.243C5.59893 16.0203 4.37892 14.9483 3.28558 13.9097Z" fill="white"/>
</svg>
