<svg width="33" height="33" viewBox="0 0 33 33" fill="none" xmlns="http://www.w3.org/2000/svg">
<path d="M4.89925 12.9876C4.03205 13.3516 3.49378 13.9996 3.48565 14.917C3.48005 15.5583 3.91285 16.4197 4.78005 16.7717C5.13725 16.917 10.1526 17.5916 10.1526 17.5916C10.1526 17.5916 11.48 21.7876 11.9584 23.2623C12.097 23.689 12.1759 23.8983 12.4799 24.177C12.9957 24.649 13.8675 24.501 14.2446 24.1223C15.2422 23.1223 16.819 21.5796 16.819 21.5796L17.4826 22.1196C17.4826 22.1196 20.4294 24.4703 22.0402 25.577C22.9886 26.229 23.6469 26.909 24.7143 26.913C25.2581 26.9157 26.1302 26.645 26.7067 25.985C27.0877 25.549 27.3321 24.8516 27.4266 24.2263C27.6415 22.8063 30.163 7.45164 30.1523 6.91431C30.1353 6.05698 29.414 5.5743 28.8146 5.57963C28.438 5.58363 28.1278 5.69298 27.4374 5.90365C22.0968 7.53432 5.25298 12.8396 4.89925 12.9876ZM24.819 9.57964C24.819 9.57964 17.7816 15.705 14.9695 18.5237C14.0686 19.4263 14.005 20.9756 14.005 20.9756L12.5514 16.325L24.819 9.57964Z"/>
</svg>
