<svg width="276" height="123" viewBox="0 0 276 123" fill="none" xmlns="http://www.w3.org/2000/svg">
<g clip-path="url(#clip0_1_7164)">
<path d="M44.0633 60.3501C44.9642 60.5025 45.8454 60.5814 46.7194 60.5814C48.7773 60.5814 50.3354 60.049 51.4065 58.9897C52.4775 57.9305 53.0166 56.312 53.0166 54.1289C53.0166 52.0372 52.5043 50.4779 51.4853 49.4527C50.4662 48.4256 48.8561 47.913 46.6603 47.913C45.806 47.913 44.9391 47.965 44.0633 48.0636V60.3519V60.3501ZM44.0633 67.4747C44.0633 68.2436 44.0633 68.9427 44.0705 69.5539C44.0777 70.1722 44.0902 70.7243 44.1027 71.2118C44.1153 71.5075 44.28 71.7047 44.6024 71.8104L47.2585 72.6188L47.2979 73.4486C45.437 73.4092 43.7409 73.3895 42.2096 73.3895C40.6515 73.3895 39.0539 73.4092 37.4241 73.4486L37.3524 72.6188L39.7183 71.909C40.0533 71.8033 40.2252 71.6061 40.2377 71.3104C40.2503 70.7977 40.2646 70.2188 40.27 69.5879C40.2771 68.9498 40.2771 68.2454 40.2771 67.4765V51.8472C40.2771 51.1894 40.2771 50.6033 40.27 50.0782C40.2628 49.553 40.2503 49.0727 40.2377 48.6515C40.2234 48.3163 40.073 48.0994 39.7774 47.9937L37.3918 47.2445L37.3524 46.4146C39.0091 46.4666 40.6264 46.4935 42.2043 46.4935C43.2627 46.4935 44.2872 46.4666 45.2794 46.4146C46.2716 46.3626 47.1725 46.3358 47.9874 46.3358C51.0303 46.3358 53.3318 46.9272 54.8953 48.1191C56.4535 49.3093 57.2344 51.0801 57.2344 53.4281C57.2344 56.1919 56.3335 58.3427 54.5336 59.868C52.7264 61.4005 50.1957 62.164 46.9415 62.164C46.0478 62.164 45.0878 62.1049 44.0615 61.9937V67.4801L44.0633 67.4747ZM66.8664 59.5812C66.8664 63.7646 67.7136 66.9747 69.4043 69.199C71.1004 71.4287 73.5791 72.5399 76.8441 72.5399C80.0644 72.5399 82.4375 71.5272 83.9706 69.5073C85.5019 67.4873 86.272 64.3094 86.272 59.9881C86.272 55.9302 85.4571 52.8115 83.8273 50.6338C82.2046 48.4489 79.6865 47.3574 76.2943 47.3574C72.9953 47.3574 70.6025 48.3701 69.1106 50.3901C67.6187 52.41 66.8682 55.475 66.8682 59.5794L66.8664 59.5812ZM90.4916 59.3321C90.4916 63.7789 89.229 67.3564 86.7126 70.0611C84.1944 72.764 80.6715 74.1208 76.1492 74.1208C71.8508 74.1208 68.5303 72.8715 66.1769 70.3712C63.8235 67.8708 62.6468 64.4905 62.6468 60.2211C62.6468 55.7743 63.9149 52.2541 66.4455 49.6695C68.9762 47.0778 72.4866 45.7819 76.9695 45.7819C81.2823 45.7819 84.6082 46.9918 86.9615 49.4132C89.3149 51.8401 90.4916 55.1434 90.4916 59.3339V59.3321ZM97.2545 48.2141L95.9596 53.0893L95.1912 53.2076L94.0342 47.1154L94.1524 46.9774C96.8336 46.2874 99.2926 45.9379 101.528 45.9379C104.479 45.9379 106.74 46.4774 108.318 47.5635C109.888 48.6497 110.678 50.261 110.678 52.3921C110.678 54.0231 110.225 55.3728 109.317 56.4374C108.416 57.5021 107.168 58.3051 105.577 58.8446C107.641 59.2066 109.186 59.9881 110.211 61.1925C111.23 62.397 111.742 63.8631 111.742 65.5999C111.742 68.3297 110.755 70.4088 108.783 71.8301C106.811 73.2515 104.143 73.9612 100.783 73.9612C98.4562 73.9612 96.1028 73.5526 93.7101 72.7442L93.599 72.6134L94.5787 65.9566L95.467 65.7989L96.8336 71.5147C98.1553 72.0416 99.5416 72.3033 100.994 72.3033C103.057 72.3033 104.662 71.7513 105.805 70.6526C106.949 69.5539 107.521 68.0214 107.521 66.048C107.521 64.0675 106.937 62.5691 105.758 61.5546C104.581 60.5348 102.893 60.0293 100.697 60.0293C100.027 60.0293 99.0795 60.1351 97.8437 60.3376L97.7327 58.081C99.1064 58.2459 100.093 58.3302 100.697 58.3302C102.636 58.3302 104.082 57.8498 105.029 56.8837C105.982 55.923 106.457 54.5752 106.457 52.8384C106.457 51.0747 105.97 49.7466 105.004 48.8576C104.032 47.9632 102.683 47.5151 100.948 47.5151C99.744 47.5151 98.5082 47.7463 97.2527 48.2123L97.2545 48.2141ZM121.734 59.5812C121.734 63.7646 122.581 66.9747 124.272 69.199C125.968 71.4287 128.447 72.5399 131.712 72.5399C134.932 72.5399 137.305 71.5272 138.838 69.5073C140.369 67.4873 141.14 64.3094 141.14 59.9881C141.14 55.9302 140.325 52.8115 138.695 50.6338C137.072 48.4489 134.554 47.3574 131.162 47.3574C127.863 47.3574 125.47 48.3701 123.978 50.3901C122.486 52.41 121.736 55.475 121.736 59.5794L121.734 59.5812ZM145.359 59.3321C145.359 63.7789 144.096 67.3564 141.58 70.0611C139.062 72.764 135.539 74.1208 131.017 74.1208C126.718 74.1208 123.398 72.8715 121.044 70.3712C118.691 67.8708 117.514 64.4905 117.514 60.2211C117.514 55.7743 118.782 52.2541 121.313 49.6695C123.844 47.0778 127.354 45.7819 131.837 45.7819C136.15 45.7819 139.476 46.9918 141.829 49.4132C144.182 51.8401 145.359 55.1434 145.359 59.3339V59.3321ZM151.499 46.4128C153.155 46.4648 154.773 46.4917 156.363 46.4917C156.961 46.4648 157.934 46.4254 159.282 46.3734C160.624 46.3214 161.53 46.2945 162.003 46.2945C164.817 46.2945 166.946 46.8215 168.392 47.8664C169.831 48.9132 170.555 50.4187 170.555 52.3849C170.555 55.5431 168.852 57.6939 165.454 58.8374C167.439 59.1726 168.972 59.9164 170.048 61.0617C171.119 62.207 171.658 63.666 171.658 65.4422C171.658 68.0142 170.725 70.0073 168.852 71.4143C166.986 72.8213 164.394 73.5257 161.075 73.5257C160.418 73.5257 159.707 73.506 158.939 73.4594C158.17 73.4128 157.309 73.3877 156.356 73.3877C154.798 73.3877 153.2 73.4074 151.57 73.4468L151.499 72.617L153.865 71.9072C154.187 71.8158 154.357 71.6186 154.384 71.3086C154.397 70.796 154.411 70.217 154.416 69.5861C154.423 68.948 154.423 68.2436 154.423 67.4747V51.8454C154.423 51.1877 154.423 50.6016 154.416 50.0764C154.409 49.5512 154.397 49.0709 154.384 48.6497C154.37 48.3145 154.219 48.0976 153.924 47.9919L151.538 47.2427L151.499 46.4128ZM158.21 59.9899V71.6993C158.591 71.8445 159.039 71.9305 159.544 71.9682C160.051 72.0076 160.511 72.0273 160.93 72.0273C163.06 72.0273 164.67 71.5021 165.782 70.4482C166.887 69.389 167.439 67.8637 167.439 65.8562C167.439 63.8506 166.88 62.3558 165.762 61.3897C164.638 60.4165 162.83 59.9289 160.339 59.9289C159.61 59.9289 158.899 59.9487 158.21 59.9881V59.9899ZM158.21 58.4305C158.998 58.4431 159.8 58.4502 160.615 58.4502C162.501 58.4502 163.928 57.9896 164.888 57.0755C165.855 56.1543 166.334 54.819 166.334 53.0768C166.334 51.2414 165.841 49.9187 164.854 49.1175C163.862 48.3145 162.442 47.913 160.581 47.913C160.246 47.913 159.884 47.9202 159.49 47.9399C159.096 47.9596 158.668 47.9991 158.208 48.051V58.4323L158.21 58.4305ZM204.821 67.4747C204.821 68.2436 204.821 68.9427 204.828 69.5736C204.835 70.2045 204.847 70.778 204.86 71.2906C204.873 71.6133 205.096 71.8301 205.53 71.9413L207.706 72.6188L207.745 73.4486C206.089 73.4092 204.491 73.3895 202.953 73.3895C201.402 73.3895 199.811 73.4092 198.181 73.4486L198.088 72.6188L200.454 71.909C200.789 71.8176 200.966 71.6204 200.993 71.3104C201.006 70.7977 201.02 70.2188 201.025 69.5879C201.033 68.9498 201.033 68.2454 201.033 67.4765V51.8472C201.033 51.1894 201.033 50.6033 201.025 50.0782C201.018 49.553 201.006 49.0727 200.993 48.6515C200.981 48.3163 200.823 48.0994 200.513 47.9937L198.147 47.2445L198.088 46.4146C199.757 46.4666 201.355 46.4935 202.881 46.4935C204.432 46.4935 206.03 46.4666 207.674 46.4146L207.745 47.2445L205.36 47.9542C205.052 48.0331 204.887 48.2303 204.86 48.5529C204.846 49.0064 204.833 49.4939 204.828 50.0262C204.821 50.5585 204.821 51.1446 204.821 51.7702V67.4783V67.4747ZM184.075 51.7791V58.1276C185.094 58.029 186.101 57.9753 187.079 57.9753C190.392 57.9753 192.864 58.6062 194.506 59.877C196.15 61.1388 196.971 62.9365 196.971 65.2576C196.971 66.7506 196.695 68.0196 196.149 69.0735C195.597 70.1256 194.861 70.9806 193.928 71.6384C193 72.289 191.916 72.7693 190.673 73.0722C189.43 73.3751 188.13 73.5257 186.762 73.5257C186.137 73.5257 185.46 73.506 184.717 73.4594C183.973 73.4128 183.139 73.3877 182.225 73.3877C180.66 73.3877 179.064 73.4074 177.433 73.4468L177.361 72.617L179.727 71.9072C180.049 71.8158 180.219 71.6186 180.246 71.3086C180.259 70.796 180.273 70.217 180.278 69.5861C180.286 68.948 180.286 68.2436 180.286 67.4747V51.8454C180.286 51.1877 180.286 50.6016 180.278 50.0764C180.271 49.5512 180.259 49.0709 180.246 48.6497C180.232 48.3145 180.081 48.0976 179.786 47.9919L177.4 47.2427L177.361 46.4128C179.018 46.4648 180.608 46.4917 182.139 46.4917C183.683 46.4917 185.34 46.4648 187.115 46.4128L187.206 47.2427L184.609 48.0116C184.287 48.1299 184.122 48.3271 184.109 48.6102C184.097 49.0637 184.083 49.5584 184.077 50.0907C184.07 50.6231 184.07 51.1894 184.07 51.7809L184.075 51.7791ZM184.075 59.6924V71.6975C184.713 71.9144 185.567 72.0255 186.626 72.0255C188.664 72.0255 190.195 71.486 191.214 70.4142C192.241 69.3424 192.753 67.7687 192.753 65.7039C192.753 63.6194 192.214 62.0869 191.13 61.0868C190.052 60.0938 188.363 59.5938 186.074 59.5938C185.791 59.5938 185.483 59.6009 185.141 59.6207C184.799 59.6404 184.444 59.6673 184.075 59.6924ZM220.512 68.3619V71.2888C220.512 71.624 220.689 71.8409 221.051 71.9395L223.187 72.617L223.246 73.4468C221.722 73.4074 220.189 73.3877 218.658 73.3877C217.127 73.3877 215.529 73.4074 213.872 73.4468L213.801 72.617L216.167 71.9072C216.502 71.8015 216.673 71.6043 216.686 71.3086C216.713 70.269 216.725 68.9857 216.725 67.4729V51.8436C216.725 50.5603 216.713 49.4957 216.686 48.6461C216.672 48.3109 216.521 48.0941 216.226 47.9883L213.84 47.2391L213.801 46.4092C215.457 46.4612 217.048 46.4881 218.579 46.4881C220.123 46.4881 221.649 46.4612 223.148 46.4092L223.246 47.2391L221.051 47.9166C220.728 47.9883 220.564 48.1855 220.551 48.5081C220.524 49.4347 220.512 50.5209 220.512 51.7648V65.5856L234.829 50.3972V48.5099C234.829 48.2141 234.652 48.017 234.29 47.9184L232.153 47.2409L232.094 46.411C233.659 46.463 235.216 46.4899 236.767 46.4899C238.305 46.4899 239.876 46.463 241.486 46.411L241.558 47.2409L239.133 47.9901C238.837 48.0958 238.687 48.3127 238.672 48.6479C238.633 49.4957 238.613 50.5621 238.613 51.8454V67.4747C238.613 68.9875 238.633 70.2708 238.672 71.3104C238.687 71.6061 238.857 71.8033 239.192 71.909L241.518 72.6188L241.558 73.4486C239.849 73.4092 238.232 73.3895 236.693 73.3895C235.155 73.3895 233.65 73.4092 232.191 73.4486L232.092 72.6188L234.288 71.9413C234.61 71.8552 234.775 71.6384 234.788 71.2906L234.827 67.4747V53.1736L220.51 68.3619H220.512ZM224.298 39.1018V41.7527C224.298 41.8907 224.384 42.0216 224.547 42.1399C224.717 42.251 224.941 42.3496 225.231 42.4302C225.521 42.5019 225.861 42.5611 226.257 42.6005C226.644 42.6399 227.072 42.6596 227.532 42.6596C228 42.6596 228.421 42.6399 228.808 42.6005C229.189 42.5611 229.524 42.5019 229.807 42.4302C230.09 42.3514 230.307 42.2528 230.464 42.1399C230.616 42.0216 230.695 41.8907 230.695 41.7527V39.1018C230.939 38.9441 231.188 38.8258 231.458 38.7523C231.722 38.6735 231.965 38.634 232.194 38.634C232.76 38.634 233.213 38.8186 233.556 39.1932C233.898 39.5678 234.062 40.0285 234.062 40.568C234.062 41.2975 233.839 41.9033 233.393 42.3711C232.947 42.8443 232.388 43.2189 231.716 43.4949C231.052 43.7709 230.33 43.9627 229.56 44.0738C228.791 44.1849 228.088 44.2387 227.463 44.2387C226.832 44.2387 226.135 44.1867 225.372 44.0738C224.609 43.9627 223.893 43.7709 223.236 43.4949C222.571 43.2189 222.02 42.8443 221.586 42.3711C221.153 41.9033 220.929 41.2993 220.929 40.568C220.929 40.0285 221.099 39.5678 221.441 39.1932C221.783 38.8186 222.236 38.634 222.802 38.634C223.033 38.634 223.275 38.6735 223.538 38.7523C223.802 38.824 224.058 38.9423 224.301 39.1018H224.298Z" fill="#6A2C3C"/>
<path d="M128.663 122.991C128.148 122.962 127.743 122.778 127.449 122.437C127.155 122.098 127.034 121.69 127.085 121.211C127.137 120.733 127.368 120.279 127.78 119.851C127.943 119.673 128.122 119.516 128.321 119.376C128.52 119.236 128.737 119.111 128.973 118.999C129.21 118.888 129.403 118.804 129.559 118.745C129.713 118.686 129.931 118.609 130.211 118.512C130.49 118.417 130.675 118.354 130.762 118.324C130.866 118.044 130.985 117.625 131.115 117.064C130.718 117.108 130.349 116.961 130.01 116.621C129.672 116.282 129.577 115.759 129.724 115.051C129.12 116.038 128.468 116.757 127.768 117.207C127.068 117.657 126.401 117.874 125.767 117.859C125.105 117.859 124.623 117.621 124.32 117.141C124.017 116.662 123.926 116.024 124.044 115.228C124.146 114.535 124.292 113.821 124.476 113.083C124.66 112.346 124.874 111.554 125.117 110.706C125.361 109.858 125.533 109.229 125.637 108.815C125.681 108.638 125.857 108.525 126.167 108.473C126.477 108.421 126.767 108.444 127.039 108.539C127.311 108.636 127.426 108.756 127.381 108.905C127.279 109.333 127.053 110.21 126.708 111.536C126.362 112.862 126.1 113.895 125.923 114.631C125.776 115.131 125.742 115.585 125.825 115.992C125.905 116.397 126.145 116.592 126.543 116.578C126.94 116.549 127.449 116.221 128.067 115.594C128.685 114.968 129.186 114.198 129.57 113.284C129.747 112.871 129.905 112.421 130.044 111.936C130.184 111.45 130.34 110.871 130.508 110.201C130.678 109.53 130.805 109.039 130.895 108.731C130.94 108.584 131.119 108.494 131.436 108.466C131.753 108.435 132.047 108.469 132.319 108.564C132.591 108.659 132.699 108.797 132.639 108.973C131.873 111.301 131.366 113.174 131.115 114.588C130.924 115.576 131.189 116.069 131.91 116.069C132.353 116.069 132.528 116.261 132.441 116.642C132.426 116.865 132.374 117.114 132.287 117.395C133.155 116.363 134.047 114.757 134.961 112.576C135.02 112.502 135.107 112.479 135.226 112.509C135.344 112.538 135.453 112.604 135.557 112.708C135.659 112.812 135.689 112.907 135.645 112.997C134.909 114.648 134.282 115.915 133.768 116.798C133.252 117.682 132.634 118.435 131.912 119.053C131.529 120.483 131.099 121.51 130.619 122.138C130.141 122.765 129.489 123.048 128.663 122.989V122.991ZM129.039 121.731C129.525 121.717 129.998 121.001 130.454 119.587C129.6 119.926 129.011 120.31 128.687 120.736C128.509 120.987 128.463 121.22 128.543 121.433C128.624 121.647 128.791 121.747 129.041 121.731H129.039ZM137.699 117.84C135.417 117.738 134.497 116.151 134.937 113.086C135.394 109.52 136.227 106.779 137.434 104.863C138.406 103.331 139.614 102.521 141.057 102.431C141.779 102.402 142.372 102.542 142.836 102.85C143.299 103.16 143.582 103.576 143.686 104.1C143.788 104.623 143.774 105.171 143.642 105.747C143.509 106.322 143.215 106.897 142.759 107.471C142.302 108.046 141.734 108.511 141.057 108.864C141.705 108.892 142.205 109.147 142.56 109.627C142.913 110.106 143.104 110.681 143.135 111.351C143.163 112.022 143.076 112.733 142.87 113.484C142.664 114.235 142.361 114.915 141.963 115.519C142.714 115.623 143.38 115.467 143.962 115.054C144.544 114.642 145.078 113.823 145.563 112.601C145.606 112.542 145.689 112.524 145.807 112.545C145.925 112.567 146.034 112.629 146.138 112.733C146.242 112.835 146.271 112.932 146.226 113.02C145.563 114.538 144.842 115.526 144.061 115.983C143.28 116.44 142.359 116.528 141.299 116.248C140.239 117.368 139.039 117.899 137.697 117.84H137.699ZM137.368 109.593C138.899 108.826 139.857 108.295 140.24 108.002C141.08 107.398 141.655 106.623 141.963 105.68C142.257 104.797 142.148 104.229 141.632 103.978C141.485 103.904 141.324 103.867 141.147 103.867C139.615 103.807 138.356 105.716 137.369 109.593H137.368ZM137.943 116.58C138.62 116.608 139.282 116.293 139.931 115.63C140.695 114.709 141.233 113.608 141.378 112.346C141.458 111.647 141.385 111.083 141.157 110.654C140.93 110.226 140.579 110.005 140.108 109.991C139.18 109.946 138.141 110.36 136.993 111.23C136.212 114.737 136.529 116.521 137.943 116.58ZM150.755 108.333C151.477 108.362 152.047 108.573 152.468 108.962C152.887 109.353 153.109 109.806 153.13 110.323C153.152 110.839 153.046 111.369 152.81 111.914C152.367 112.798 151.655 113.404 150.668 113.728C149.681 114.053 148.533 114.036 147.222 113.683C147.104 114.465 147.225 115.121 147.585 115.651C147.947 116.182 148.502 116.499 149.253 116.601C149.842 116.689 150.46 116.633 151.108 116.435C151.757 116.236 152.426 115.805 153.12 115.14C153.813 114.477 154.379 113.622 154.821 112.576C154.866 112.516 154.943 112.499 155.054 112.52C155.165 112.542 155.271 112.604 155.374 112.708C155.477 112.812 155.514 112.907 155.485 112.997C154.115 116.417 151.943 118.051 148.968 117.904C147.48 117.816 146.439 117.259 145.843 116.236C145.246 115.21 145.139 114.022 145.522 112.665C145.905 111.294 146.59 110.212 147.576 109.416C148.563 108.62 149.624 108.26 150.757 108.333H150.755ZM150.467 109.593C149.878 109.579 149.278 109.884 148.667 110.511C148.056 111.136 147.632 111.877 147.397 112.733C149.298 113.103 150.542 112.712 151.132 111.561C151.411 111.118 151.504 110.681 151.407 110.246C151.312 109.81 150.999 109.593 150.469 109.593H150.467ZM165.578 117.906C164.87 117.92 164.381 117.729 164.109 117.331C163.837 116.933 163.76 116.381 163.876 115.673C163.921 115.379 164.005 114.979 164.131 114.479C164.256 113.977 164.399 113.418 164.562 112.798C164.724 112.18 164.842 111.715 164.915 111.405C165.211 110.271 165.092 109.702 164.562 109.702C164.077 109.717 163.484 110.108 162.784 110.875C162.084 111.642 161.609 112.43 161.358 113.241C161.24 113.698 161.068 114.42 160.839 115.408C160.611 116.395 160.445 117.051 160.341 117.376C160.282 117.522 160.103 117.63 159.8 117.696C159.497 117.763 159.211 117.759 158.939 117.686C158.666 117.612 158.53 117.494 158.53 117.333C159.119 115.004 159.619 113.008 160.033 111.341C160.284 110.28 160.137 109.749 159.59 109.749C159.179 109.735 158.673 110.057 158.077 110.722C157.481 111.385 156.961 112.167 156.519 113.065C156.166 114.332 155.797 115.791 155.414 117.442C155.371 117.589 155.186 117.686 154.862 117.73C154.538 117.775 154.234 117.745 153.945 117.643C153.659 117.54 153.537 117.377 153.582 117.157C154.436 114.092 155.179 111.262 155.813 108.666C155.887 108.505 156.068 108.408 156.354 108.38C156.641 108.351 156.913 108.39 157.171 108.502C157.429 108.613 157.551 108.763 157.534 108.955C157.475 109.19 157.388 109.534 157.269 109.984C157.151 110.434 157.049 110.79 156.961 111.056C157.404 110.289 157.93 109.634 158.541 109.088C159.152 108.543 159.782 108.278 160.43 108.292C161.034 108.306 161.473 108.55 161.745 109.021C162.017 109.493 162.066 110.097 161.888 110.833C163.022 109.124 164.165 108.276 165.313 108.29C166.756 108.304 167.272 109.271 166.858 111.187C166.814 111.378 166.744 111.64 166.649 111.972C166.552 112.303 166.454 112.631 166.35 112.956C166.248 113.28 166.144 113.626 166.042 113.995C165.938 114.364 165.854 114.703 165.787 115.011C165.721 115.32 165.676 115.601 165.655 115.852C165.633 116.103 165.655 116.298 165.721 116.438C165.787 116.578 165.895 116.648 166.042 116.648C166.527 116.633 167.091 116.214 167.732 115.388C168.374 114.563 168.9 113.626 169.312 112.579C169.371 112.52 169.459 112.499 169.577 112.513C169.695 112.527 169.805 112.586 169.908 112.69C170.012 112.792 170.041 112.896 169.996 113C169.745 113.576 169.477 114.121 169.19 114.637C168.904 115.153 168.569 115.667 168.186 116.184C167.802 116.7 167.387 117.112 166.937 117.422C166.488 117.732 166.035 117.894 165.578 117.908V117.906ZM174.415 108.288C175.607 108.26 176.451 108.641 176.944 109.439C177.436 110.235 177.595 111.185 177.418 112.291C177.241 113.397 176.843 114.465 176.225 115.497C177.698 115.644 178.855 114.673 179.695 112.579C179.739 112.52 179.823 112.502 179.949 112.524C180.074 112.545 180.187 112.604 180.291 112.701C180.393 112.796 180.423 112.896 180.379 112.999C179.231 115.71 177.617 116.8 175.541 116.27C174.554 117.345 173.376 117.885 172.008 117.885C170.962 117.885 170.145 117.539 169.556 116.845C168.966 116.151 168.805 115.062 169.07 113.574C169.321 112.101 169.953 110.862 170.971 109.86C171.986 108.858 173.136 108.335 174.416 108.29L174.415 108.288ZM174.237 109.593C173.485 109.638 172.79 110.086 172.149 110.941C171.508 111.796 171.107 112.696 170.945 113.638C170.636 115.614 171.085 116.601 172.292 116.601C172.969 116.601 173.603 116.27 174.193 115.606C174.685 115.108 175.316 113.429 175.486 112.744C175.625 112.178 175.692 111.649 175.684 111.163C175.677 110.678 175.552 110.287 175.308 109.991C175.065 109.697 174.708 109.564 174.237 109.593ZM183.891 117.885C182.963 117.899 182.266 117.664 181.803 117.177C181.339 116.691 181.122 116.049 181.151 115.253C181.21 113.78 182.109 111.952 183.846 109.771C182.918 109.477 182.234 109.027 181.792 108.423C181.366 110.516 180.767 112.314 180.003 113.818C179.944 113.877 179.856 113.895 179.738 113.873C179.619 113.852 179.51 113.796 179.406 113.707C179.304 113.619 179.274 113.538 179.318 113.463C180.085 111.841 180.696 109.925 181.152 107.715C180.726 107.111 180.674 106.595 180.998 106.168C181.249 105.858 181.536 105.784 181.86 105.947C182.229 106.125 182.39 106.575 182.345 107.295C182.788 108.062 183.531 108.57 184.577 108.821C184.93 108.718 185.225 108.733 185.46 108.865C185.696 108.998 185.788 109.229 185.736 109.563C185.684 109.894 185.46 110.267 185.062 110.679C183.751 112.257 183.081 113.744 183.051 115.146C183.022 115.589 183.117 115.938 183.337 116.196C183.56 116.454 183.891 116.583 184.331 116.583C185.008 116.598 185.685 116.289 186.364 115.655C187.043 115.02 187.682 113.997 188.286 112.581C188.329 112.522 188.408 112.504 188.519 112.525C188.63 112.547 188.736 112.61 188.839 112.714C188.942 112.818 188.979 112.913 188.95 113.002C188.184 114.698 187.419 115.931 186.653 116.705C185.886 117.479 184.965 117.874 183.891 117.888V117.885ZM194.605 117.906C194.119 117.906 193.747 117.815 193.489 117.63C193.231 117.445 193.081 117.148 193.036 116.736C192.991 116.323 192.998 115.902 193.057 115.476C193.116 115.049 193.227 114.481 193.389 113.773H189.789C189.287 115.777 188.993 117.001 188.906 117.444C188.877 117.591 188.693 117.691 188.352 117.743C188.014 117.795 187.7 117.772 187.414 117.677C187.127 117.582 187.013 117.429 187.072 117.223C187.985 113.716 188.7 110.893 189.216 108.756C189.26 108.579 189.439 108.469 189.756 108.425C190.073 108.38 190.374 108.41 190.663 108.512C190.951 108.616 191.071 108.763 191.028 108.955C190.498 111.032 190.195 112.212 190.122 112.491H193.679C194.105 110.988 194.438 109.742 194.673 108.754C194.718 108.577 194.9 108.468 195.226 108.423C195.55 108.378 195.851 108.408 196.132 108.511C196.412 108.615 196.53 108.761 196.485 108.953C195.984 110.796 195.461 112.733 194.916 114.768C194.578 116.021 194.637 116.646 195.094 116.646C195.581 116.646 196.136 116.252 196.761 115.463C197.388 114.674 197.936 113.712 198.407 112.577C198.452 112.518 198.532 112.497 198.651 112.511C198.769 112.525 198.878 112.585 198.982 112.689C199.084 112.791 199.114 112.895 199.07 112.999C197.583 116.241 196.095 117.877 194.606 117.906H194.605ZM212.058 112.601C212.117 112.527 212.205 112.499 212.323 112.513C212.441 112.527 212.551 112.59 212.654 112.701C212.757 112.812 212.787 112.918 212.742 113.022C212.432 113.64 212.146 114.183 211.881 114.648C211.616 115.112 211.288 115.617 210.897 116.162C210.507 116.707 210.084 117.132 209.628 117.433C209.171 117.736 208.714 117.886 208.258 117.886C207.521 117.901 207.034 117.684 206.8 117.234C206.565 116.784 206.549 116.132 206.755 115.277V115.232C205.974 116.115 205.046 116.499 203.972 116.381C203.117 117.413 201.976 117.922 200.547 117.906C199 117.892 198.162 117.082 198.029 115.474C197.956 114.074 198.441 111.803 199.487 108.665C199.546 108.473 199.731 108.358 200.039 108.322C200.348 108.285 200.631 108.315 200.889 108.41C201.147 108.505 201.253 108.627 201.21 108.774C200.68 110.16 200.282 111.42 200.017 112.554C200.37 112.054 200.834 111.644 201.409 111.328C201.984 111.011 202.58 110.896 203.198 110.986C203.816 111.074 204.273 111.369 204.568 111.869C204.864 112.369 204.991 112.945 204.955 113.594C204.917 114.242 204.767 114.884 204.502 115.517C205.077 115.531 205.618 115.28 206.126 114.766C206.635 114.25 207.065 113.52 207.419 112.577L207.464 112.533C207.509 112.369 207.876 111.102 208.569 108.731C208.643 108.451 208.974 108.355 209.563 108.442C210.065 108.545 210.306 108.693 210.292 108.885C209.203 112.717 208.621 114.759 208.548 115.01C208.401 115.467 208.335 115.857 208.349 116.182C208.363 116.506 208.519 116.66 208.813 116.646C209.284 116.632 209.841 116.207 210.48 115.375C211.121 114.542 211.648 113.617 212.06 112.601H212.058ZM202.514 112.248C201.941 112.158 201.357 112.339 200.769 112.789C200.18 113.239 199.797 113.877 199.62 114.701C199.517 115.969 199.892 116.61 200.746 116.625C201.482 116.639 202.086 116.331 202.557 115.696C203.103 114.838 204.149 112.506 202.514 112.248ZM218.995 105.195C219.127 105.062 219.292 105.107 219.493 105.327C219.691 105.55 219.74 105.718 219.636 105.836C218.987 106.691 218.119 107.134 217.03 107.163C215.941 107.191 215.293 106.786 215.085 105.947C215.042 105.784 215.096 105.634 215.251 105.494C215.405 105.354 215.565 105.274 215.726 105.25C215.889 105.229 216.005 105.261 216.079 105.351C216.256 105.689 216.532 105.888 216.908 105.947C217.284 106.007 217.659 105.958 218.035 105.804C218.411 105.65 218.731 105.446 218.996 105.197L218.995 105.195ZM218.576 108.71C218.678 108.459 218.995 108.374 219.525 108.455C220.055 108.536 220.313 108.717 220.298 108.996C220.076 109.645 219.87 110.312 219.681 110.997C219.489 111.681 219.283 112.481 219.063 113.395C218.842 114.309 218.739 115.053 218.753 115.628C218.767 116.203 218.923 116.49 219.217 116.49C219.688 116.504 220.229 116.124 220.841 115.352C221.452 114.578 221.971 113.66 222.399 112.599C222.444 112.525 222.525 112.5 222.643 112.522C222.761 112.543 222.87 112.606 222.974 112.71C223.076 112.814 223.107 112.909 223.062 112.999C222.252 114.694 221.531 115.881 220.897 116.558C220.146 117.354 219.38 117.745 218.599 117.73C218.01 117.73 217.601 117.451 217.372 116.89C217.145 116.331 217.118 115.718 217.295 115.054C216.116 117.03 214.762 117.965 213.229 117.863C212.567 117.849 212.081 117.601 211.771 117.123C211.462 116.644 211.374 116.013 211.506 115.232C211.609 114.538 211.757 113.816 211.949 113.065C212.14 112.314 212.361 111.518 212.611 110.678C212.862 109.837 213.04 109.204 213.142 108.776C213.201 108.598 213.374 108.489 213.661 108.444C213.948 108.399 214.22 108.43 214.478 108.532C214.736 108.634 214.857 108.769 214.843 108.93C214.77 109.24 214.564 110.036 214.225 111.317C213.887 112.599 213.636 113.61 213.475 114.346C213.312 114.906 213.258 115.415 213.308 115.872C213.36 116.329 213.591 116.565 214.005 116.58C214.506 116.58 215.079 116.286 215.728 115.696C216.376 115.106 216.878 114.311 217.23 113.309C217.524 112.454 217.974 110.921 218.577 108.71H218.576Z" fill="#6A2C3C"/>
<path d="M111.504 112.196H1.16516V1.16504H274.835V112.196H233.547" stroke="#6A2C3C" stroke-width="1.89017" stroke-miterlimit="22.9256"/>
</g>
<defs>
<clipPath id="clip0_1_7164">
<rect width="276" height="123" fill="white"/>
</clipPath>
</defs>
</svg>
