<svg xmlns="http://www.w3.org/2000/svg" style="display:none"><symbol id="icon-cart" viewBox="0 0 28 28"><path d="M19.333 8.178c0 1.509-.562 2.955-1.562 4.022-1 1.067-2.357 1.667-3.772 1.667-1.414 0-2.77-.6-3.77-1.667-1.001-1.066-1.563-2.513-1.563-4.022m-5.822-.852L1.91 19.273c-.2 2.567-.3 3.85.106 4.84.358.87.977 1.587 1.76 2.04.89.514 2.098.514 4.512.514h11.423c2.414 0 3.621 0 4.512-.515a4.175 4.175 0 0 0 1.76-2.04c.406-.99.306-2.272.105-4.839l-.933-11.947c-.172-2.208-.259-3.312-.717-4.148a4.111 4.111 0 0 0-1.726-1.693c-.819-.418-1.857-.418-3.935-.418H9.222c-2.078 0-3.116 0-3.935.418A4.111 4.111 0 0 0 3.56 3.178c-.458.836-.545 1.94-.717 4.148z" fill="transparent"/></symbol><symbol id="icon-heart" viewBox="0 0 28 26"><path d="M19.344 1C23.924 1 27 5.47 27 9.64 27 18.085 14.231 25 14 25c-.231 0-13-6.915-13-15.36C1 5.47 4.077 1 8.656 1 11.284 1 13.003 2.365 14 3.565 14.997 2.365 16.716 1 19.344 1z" stroke="#A05175" fill="transparent" stroke-width="2" stroke-linecap="round" stroke-linejoin="round"/></symbol><symbol id="icon-search" viewBox="0 0 26 26"><path d="M25 25l-5.8-5.8m3.133-7.533c0 5.89-4.775 10.666-10.666 10.666S1 17.558 1 11.667 5.776 1 11.667 1c5.89 0 10.666 4.776 10.666 10.667z" stroke="#261C29" fill="transparent" stroke-width="2" stroke-linecap="round" stroke-linejoin="round"/></symbol><symbol id="social-icon-email" viewBox="0 0 33 33"><path d="M8.536 5.702c-2.712 0-4.834.685-5.21 3.292-.12.834.145 1.656.752 2.249.3.295.62.645 1.04 1 1.058.892 2.406 1.895 3.668 2.792 3.47 2.467 6.21 4 7.833 4 1.623 0 4.363-1.533 7.833-4 1.263-.897 2.611-1.901 3.667-2.792.421-.355.74-.704 1.041-1 .607-.593.871-1.415.75-2.25-.374-2.606-2.496-3.291-5.208-3.291H8.536zm-5.25 8.208v7.792a5.334 5.334 0 0 0 5.333 5.333h16a5.334 5.334 0 0 0 5.333-5.333V13.91a34.836 34.836 0 0 1-4.041 3.333c-3.781 2.677-7.177 4.459-9.292 4.459s-5.51-1.782-9.292-4.459a34.728 34.728 0 0 1-4.041-3.333z"/></symbol><symbol id="social-icon-instargam" viewBox="0 0 32 33"><mask id="a" fill="#fff"><path fill-rule="evenodd" clip-rule="evenodd" d="M5 13.371C5 9.6 5 7.714 6.172 6.543 7.343 5.37 9.229 5.37 13 5.37h5.333c3.772 0 5.657 0 6.829 1.172 1.171 1.171 1.171 3.057 1.171 6.828v5.333c0 3.772 0 5.657-1.171 6.829-1.172 1.171-3.057 1.171-6.829 1.171H13c-3.771 0-5.657 0-6.828-1.171C5 24.36 5 22.476 5 18.704v-5.333zm17 3.5a6.5 6.5 0 1 1-13 0 6.5 6.5 0 0 1 13 0zm-6.5 3.25a3.25 3.25 0 1 0 0-6.5 3.25 3.25 0 0 0 0 6.5zm6-8.417a1.5 1.5 0 1 0 0-3 1.5 1.5 0 0 0 0 3z"/></mask><path clip-rule="evenodd" d="M5 13.371C5 9.6 5 7.714 6.172 6.543 7.343 5.37 9.229 5.37 13 5.37h5.333c3.772 0 5.657 0 6.829 1.172 1.171 1.171 1.171 3.057 1.171 6.828v5.333c0 3.772 0 5.657-1.171 6.829-1.172 1.171-3.057 1.171-6.829 1.171H13c-3.771 0-5.657 0-6.828-1.171C5 24.36 5 22.476 5 18.704v-5.333zm17 3.5a6.5 6.5 0 1 1-13 0 6.5 6.5 0 0 1 13 0zm-6.5 3.25a3.25 3.25 0 1 0 0-6.5 3.25 3.25 0 0 0 0 6.5zm6-8.417a1.5 1.5 0 1 0 0-3 1.5 1.5 0 0 0 0 3z"/><path d="M25.162 6.543l-1.414 1.414 1.414-1.414zm0 18.99l-1.414-1.414 1.414 1.414zm-18.99 0l1.414-1.414-1.414 1.414zM4.757 5.128c-1.019 1.02-1.416 2.276-1.593 3.588C2.996 9.969 3 11.542 3 13.37h4c0-1.942.004-3.197.129-4.123.116-.867.305-1.139.457-1.291L4.757 5.128zM13 3.371c-1.829 0-3.402-.004-4.656.164-1.31.177-2.567.574-3.587 1.593l2.829 2.829c.152-.152.424-.34 1.291-.457.925-.125 2.18-.129 4.123-.129v-4zm5.333 0H13v4h5.333v-4zm8.243 1.757c-1.02-1.019-2.276-1.416-3.587-1.593-1.254-.168-2.827-.164-4.656-.164v4c1.943 0 3.198.004 4.123.129.867.116 1.14.305 1.292.457l2.828-2.829zm1.757 8.243c0-1.829.005-3.402-.164-4.655-.176-1.312-.574-2.568-1.593-3.588l-2.828 2.829c.152.152.34.424.457 1.292.124.925.128 2.18.128 4.122h4zm0 5.333v-5.333h-4v5.333h4zm-1.757 8.243c1.02-1.02 1.417-2.276 1.593-3.587.169-1.253.164-2.826.164-4.656h-4c0 1.943-.004 3.198-.128 4.123-.117.867-.305 1.14-.457 1.292l2.828 2.828zm-8.243 1.757c1.83 0 3.402.005 4.656-.164 1.311-.176 2.568-.574 3.587-1.593l-2.828-2.828c-.153.152-.425.34-1.292.457-.925.124-2.18.128-4.123.128v4zm-5.333 0h5.333v-4H13v4zm-8.243-1.757c1.02 1.02 2.276 1.417 3.587 1.593 1.254.169 2.827.164 4.656.164v-4c-1.942 0-3.198-.004-4.123-.128-.867-.117-1.139-.305-1.291-.457l-2.829 2.828zM3 18.704c0 1.83-.004 3.402.164 4.656.177 1.311.574 2.568 1.593 3.587l2.829-2.828c-.152-.153-.34-.424-.457-1.292-.125-.925-.129-2.18-.129-4.123H3zm0-5.333v5.333h4v-5.333H3zm12.5 12a8.5 8.5 0 0 0 8.5-8.5h-4a4.5 4.5 0 0 1-4.5 4.5v4zm-8.5-8.5a8.5 8.5 0 0 0 8.5 8.5v-4a4.5 4.5 0 0 1-4.5-4.5H7zm8.5-8.5a8.5 8.5 0 0 0-8.5 8.5h4a4.5 4.5 0 0 1 4.5-4.5v-4zm8.5 8.5a8.5 8.5 0 0 0-8.5-8.5v4a4.5 4.5 0 0 1 4.5 4.5h4zm-7.25 0c0 .69-.56 1.25-1.25 1.25v4c2.9 0 5.25-2.35 5.25-5.25h-4zm-1.25-1.25c.69 0 1.25.56 1.25 1.25h4c0-2.9-2.35-5.25-5.25-5.25v4zm-1.25 1.25c0-.69.56-1.25 1.25-1.25v-4a5.25 5.25 0 0 0-5.25 5.25h4zm1.25 1.25c-.69 0-1.25-.56-1.25-1.25h-4c0 2.9 2.35 5.25 5.25 5.25v-4zm5.5-7.917a.5.5 0 0 1 .5-.5v4a3.5 3.5 0 0 0 3.5-3.5h-4zm.5.5a.5.5 0 0 1-.5-.5h4a3.5 3.5 0 0 0-3.5-3.5v4zm.5-.5a.5.5 0 0 1-.5.5v-4a3.5 3.5 0 0 0-3.5 3.5h4zm-.5-.5a.5.5 0 0 1 .5.5h-4a3.5 3.5 0 0 0 3.5 3.5v-4z" mask="url(#a)"/></symbol><symbol id="social-icon-telegram" viewBox="0 0 33 33"><path d="M4.9 12.988c-.868.364-1.406 1.012-1.414 1.929-.006.641.427 1.503 1.294 1.855.357.145 5.373.82 5.373.82s1.327 4.196 1.805 5.67c.139.427.218.636.522.915.516.472 1.387.324 1.765-.055.997-1 2.574-2.542 2.574-2.542l.664.54s2.946 2.35 4.557 3.457c.949.652 1.607 1.332 2.674 1.336.544.003 1.416-.268 1.993-.928.38-.436.625-1.133.72-1.759.215-1.42 2.736-16.774 2.725-17.312a1.351 1.351 0 0 0-1.337-1.334c-.377.004-.687.113-1.378.324-5.34 1.63-22.184 6.936-22.538 7.084zM24.818 9.58s-7.037 6.125-9.85 8.944c-.9.902-.964 2.452-.964 2.452l-1.454-4.651L24.82 9.58z"/></symbol><symbol id="social-icon-whatsapp" viewBox="0 0 33 33"><path d="M16.399 2.975c-7.364 0-13.334 5.97-13.334 13.333 0 1.912.427 3.817 1.25 5.584-1.092 5.646-1.208 6.166-1.208 6.166A1.31 1.31 0 0 0 4.649 29.6s.506-.087 6.208-1.167c1.722.819 3.63 1.209 5.542 1.209 7.364 0 13.333-5.97 13.333-13.334 0-7.363-5.97-13.333-13.333-13.333zm0 2.667c5.89 0 10.666 4.775 10.666 10.666 0 5.892-4.776 10.667-10.666 10.667-1.676 0-3.286-.394-4.75-1.125a1.31 1.31 0 0 0-.834-.125c-4.734.896-4.358.843-4.75.917.078-.397.01.015.918-4.667.056-.29.006-.611-.126-.875a10.583 10.583 0 0 1-1.125-4.792c0-5.89 4.776-10.666 10.667-10.666zm-3.75 4c-1.25 0-2.917 1.666-2.917 2.916 0 1.611 1.667 4.584 3.333 6.25l.834.834c1.666 1.666 4.638 3.333 6.249 3.333 1.25 0 2.917-1.667 2.917-2.917 0-1.25-1.666-2.916-2.917-2.916-.416 0-1.924.862-2.083.833-1.328-.24-3.056-2.01-3.333-3.333-.039-.185.833-1.667.833-2.084 0-1.25-1.666-2.916-2.916-2.916z"/></symbol><symbol id="temp-icon-left-arrow" viewBox="0 0 31.494 31.494"><path d="M10.273 5.01a1.117 1.117 0 0 1 1.587 1.57l-8.047 8.047h26.554c.62 0 1.127.492 1.127 1.11 0 .62-.508 1.128-1.127 1.128H3.813l8.047 8.032c.43.444.43 1.16 0 1.587a1.112 1.112 0 0 1-1.587 0L.32 16.532a1.12 1.12 0 0 1 0-1.57l9.953-9.953z" fill="#1E201D"/></symbol><symbol id="temp-icon-right-arrow" viewBox="0 0 31.49 31.49"><path d="M21.205 5.007a1.117 1.117 0 0 0-1.587 1.57l8.047 8.048H1.11c-.618 0-1.11.493-1.11 1.112 0 .62.492 1.127 1.11 1.127h26.555l-8.047 8.032c-.43.444-.43 1.16 0 1.587.444.444 1.16.444 1.587 0l9.952-9.952a1.092 1.092 0 0 0 0-1.57l-9.952-9.95z" fill="#1E201D"/></symbol></svg>